G04 #@! TF.GenerationSoftware,KiCad,Pcbnew,(5.1.4-0)*
G04 #@! TF.CreationDate,2019-11-08T19:26:01-06:00*
G04 #@! TF.ProjectId,cartprotoboardmini,63617274-7072-46f7-946f-626f6172646d,rev?*
G04 #@! TF.SameCoordinates,Original*
G04 #@! TF.FileFunction,Legend,Bot*
G04 #@! TF.FilePolarity,Positive*
%FSLAX46Y46*%
G04 Gerber Fmt 4.6, Leading zero omitted, Abs format (unit mm)*
G04 Created by KiCad (PCBNEW (5.1.4-0)) date 2019-11-08 19:26:01*
%MOMM*%
%LPD*%
G04 APERTURE LIST*
%ADD10C,0.300000*%
%ADD11C,0.150000*%
%ADD12C,0.180000*%
%ADD13C,0.120000*%
G04 APERTURE END LIST*
D10*
X110670000Y-66370000D02*
X120904000Y-66357500D01*
X110680500Y-68834000D02*
X110670000Y-63770000D01*
D11*
X150755619Y-77415880D02*
X150755619Y-76415880D01*
X150755619Y-76892071D02*
X150184190Y-76892071D01*
X150184190Y-77415880D02*
X150184190Y-76415880D01*
X149755619Y-77130166D02*
X149279428Y-77130166D01*
X149850857Y-77415880D02*
X149517523Y-76415880D01*
X149184190Y-77415880D01*
X148279428Y-77320642D02*
X148327047Y-77368261D01*
X148469904Y-77415880D01*
X148565142Y-77415880D01*
X148708000Y-77368261D01*
X148803238Y-77273023D01*
X148850857Y-77177785D01*
X148898476Y-76987309D01*
X148898476Y-76844452D01*
X148850857Y-76653976D01*
X148803238Y-76558738D01*
X148708000Y-76463500D01*
X148565142Y-76415880D01*
X148469904Y-76415880D01*
X148327047Y-76463500D01*
X148279428Y-76511119D01*
X147850857Y-77415880D02*
X147850857Y-76415880D01*
X147279428Y-77415880D02*
X147708000Y-76844452D01*
X147279428Y-76415880D02*
X147850857Y-76987309D01*
X146898476Y-77130166D02*
X146422285Y-77130166D01*
X146993714Y-77415880D02*
X146660380Y-76415880D01*
X146327047Y-77415880D01*
X145993714Y-77415880D02*
X145993714Y-76415880D01*
X145755619Y-76415880D01*
X145612761Y-76463500D01*
X145517523Y-76558738D01*
X145469904Y-76653976D01*
X145422285Y-76844452D01*
X145422285Y-76987309D01*
X145469904Y-77177785D01*
X145517523Y-77273023D01*
X145612761Y-77368261D01*
X145755619Y-77415880D01*
X145993714Y-77415880D01*
X145041333Y-77130166D02*
X144565142Y-77130166D01*
X145136571Y-77415880D02*
X144803238Y-76415880D01*
X144469904Y-77415880D01*
X143946095Y-76939690D02*
X143946095Y-77415880D01*
X144279428Y-76415880D02*
X143946095Y-76939690D01*
X143612761Y-76415880D01*
X142565142Y-77368261D02*
X142422285Y-77415880D01*
X142184190Y-77415880D01*
X142088952Y-77368261D01*
X142041333Y-77320642D01*
X141993714Y-77225404D01*
X141993714Y-77130166D01*
X142041333Y-77034928D01*
X142088952Y-76987309D01*
X142184190Y-76939690D01*
X142374666Y-76892071D01*
X142469904Y-76844452D01*
X142517523Y-76796833D01*
X142565142Y-76701595D01*
X142565142Y-76606357D01*
X142517523Y-76511119D01*
X142469904Y-76463500D01*
X142374666Y-76415880D01*
X142136571Y-76415880D01*
X141993714Y-76463500D01*
X141565142Y-76415880D02*
X141565142Y-77225404D01*
X141517523Y-77320642D01*
X141469904Y-77368261D01*
X141374666Y-77415880D01*
X141184190Y-77415880D01*
X141088952Y-77368261D01*
X141041333Y-77320642D01*
X140993714Y-77225404D01*
X140993714Y-76415880D01*
X140517523Y-77415880D02*
X140517523Y-76415880D01*
X140136571Y-76415880D01*
X140041333Y-76463500D01*
X139993714Y-76511119D01*
X139946095Y-76606357D01*
X139946095Y-76749214D01*
X139993714Y-76844452D01*
X140041333Y-76892071D01*
X140136571Y-76939690D01*
X140517523Y-76939690D01*
X139517523Y-76892071D02*
X139184190Y-76892071D01*
X139041333Y-77415880D02*
X139517523Y-77415880D01*
X139517523Y-76415880D01*
X139041333Y-76415880D01*
X138041333Y-77415880D02*
X138374666Y-76939690D01*
X138612761Y-77415880D02*
X138612761Y-76415880D01*
X138231809Y-76415880D01*
X138136571Y-76463500D01*
X138088952Y-76511119D01*
X138041333Y-76606357D01*
X138041333Y-76749214D01*
X138088952Y-76844452D01*
X138136571Y-76892071D01*
X138231809Y-76939690D01*
X138612761Y-76939690D01*
X137041333Y-77320642D02*
X137088952Y-77368261D01*
X137231809Y-77415880D01*
X137327047Y-77415880D01*
X137469904Y-77368261D01*
X137565142Y-77273023D01*
X137612761Y-77177785D01*
X137660380Y-76987309D01*
X137660380Y-76844452D01*
X137612761Y-76653976D01*
X137565142Y-76558738D01*
X137469904Y-76463500D01*
X137327047Y-76415880D01*
X137231809Y-76415880D01*
X137088952Y-76463500D01*
X137041333Y-76511119D01*
X136422285Y-76415880D02*
X136231809Y-76415880D01*
X136136571Y-76463500D01*
X136041333Y-76558738D01*
X135993714Y-76749214D01*
X135993714Y-77082547D01*
X136041333Y-77273023D01*
X136136571Y-77368261D01*
X136231809Y-77415880D01*
X136422285Y-77415880D01*
X136517523Y-77368261D01*
X136612761Y-77273023D01*
X136660380Y-77082547D01*
X136660380Y-76749214D01*
X136612761Y-76558738D01*
X136517523Y-76463500D01*
X136422285Y-76415880D01*
X135565142Y-77415880D02*
X135565142Y-76415880D01*
X134993714Y-77415880D01*
X134993714Y-76415880D01*
X133803238Y-76511119D02*
X133755619Y-76463500D01*
X133660380Y-76415880D01*
X133422285Y-76415880D01*
X133327047Y-76463500D01*
X133279428Y-76511119D01*
X133231809Y-76606357D01*
X133231809Y-76701595D01*
X133279428Y-76844452D01*
X133850857Y-77415880D01*
X133231809Y-77415880D01*
X132612761Y-76415880D02*
X132517523Y-76415880D01*
X132422285Y-76463500D01*
X132374666Y-76511119D01*
X132327047Y-76606357D01*
X132279428Y-76796833D01*
X132279428Y-77034928D01*
X132327047Y-77225404D01*
X132374666Y-77320642D01*
X132422285Y-77368261D01*
X132517523Y-77415880D01*
X132612761Y-77415880D01*
X132708000Y-77368261D01*
X132755619Y-77320642D01*
X132803238Y-77225404D01*
X132850857Y-77034928D01*
X132850857Y-76796833D01*
X132803238Y-76606357D01*
X132755619Y-76511119D01*
X132708000Y-76463500D01*
X132612761Y-76415880D01*
X131327047Y-77415880D02*
X131898476Y-77415880D01*
X131612761Y-77415880D02*
X131612761Y-76415880D01*
X131708000Y-76558738D01*
X131803238Y-76653976D01*
X131898476Y-76701595D01*
X130850857Y-77415880D02*
X130660380Y-77415880D01*
X130565142Y-77368261D01*
X130517523Y-77320642D01*
X130422285Y-77177785D01*
X130374666Y-76987309D01*
X130374666Y-76606357D01*
X130422285Y-76511119D01*
X130469904Y-76463500D01*
X130565142Y-76415880D01*
X130755619Y-76415880D01*
X130850857Y-76463500D01*
X130898476Y-76511119D01*
X130946095Y-76606357D01*
X130946095Y-76844452D01*
X130898476Y-76939690D01*
X130850857Y-76987309D01*
X130755619Y-77034928D01*
X130565142Y-77034928D01*
X130469904Y-76987309D01*
X130422285Y-76939690D01*
X130374666Y-76844452D01*
X149017523Y-78542071D02*
X148874666Y-78589690D01*
X148827047Y-78637309D01*
X148779428Y-78732547D01*
X148779428Y-78875404D01*
X148827047Y-78970642D01*
X148874666Y-79018261D01*
X148969904Y-79065880D01*
X149350857Y-79065880D01*
X149350857Y-78065880D01*
X149017523Y-78065880D01*
X148922285Y-78113500D01*
X148874666Y-78161119D01*
X148827047Y-78256357D01*
X148827047Y-78351595D01*
X148874666Y-78446833D01*
X148922285Y-78494452D01*
X149017523Y-78542071D01*
X149350857Y-78542071D01*
X148398476Y-78780166D02*
X147922285Y-78780166D01*
X148493714Y-79065880D02*
X148160380Y-78065880D01*
X147827047Y-79065880D01*
X147493714Y-79065880D02*
X147493714Y-78065880D01*
X147255619Y-78065880D01*
X147112761Y-78113500D01*
X147017523Y-78208738D01*
X146969904Y-78303976D01*
X146922285Y-78494452D01*
X146922285Y-78637309D01*
X146969904Y-78827785D01*
X147017523Y-78923023D01*
X147112761Y-79018261D01*
X147255619Y-79065880D01*
X147493714Y-79065880D01*
X145969904Y-78113500D02*
X146065142Y-78065880D01*
X146208000Y-78065880D01*
X146350857Y-78113500D01*
X146446095Y-78208738D01*
X146493714Y-78303976D01*
X146541333Y-78494452D01*
X146541333Y-78637309D01*
X146493714Y-78827785D01*
X146446095Y-78923023D01*
X146350857Y-79018261D01*
X146208000Y-79065880D01*
X146112761Y-79065880D01*
X145969904Y-79018261D01*
X145922285Y-78970642D01*
X145922285Y-78637309D01*
X146112761Y-78637309D01*
X145493714Y-78542071D02*
X145160380Y-78542071D01*
X145017523Y-79065880D02*
X145493714Y-79065880D01*
X145493714Y-78065880D01*
X145017523Y-78065880D01*
X143255619Y-78970642D02*
X143303238Y-79018261D01*
X143446095Y-79065880D01*
X143541333Y-79065880D01*
X143684190Y-79018261D01*
X143779428Y-78923023D01*
X143827047Y-78827785D01*
X143874666Y-78637309D01*
X143874666Y-78494452D01*
X143827047Y-78303976D01*
X143779428Y-78208738D01*
X143684190Y-78113500D01*
X143541333Y-78065880D01*
X143446095Y-78065880D01*
X143303238Y-78113500D01*
X143255619Y-78161119D01*
X142874666Y-78780166D02*
X142398476Y-78780166D01*
X142969904Y-79065880D02*
X142636571Y-78065880D01*
X142303238Y-79065880D01*
X141398476Y-79065880D02*
X141731809Y-78589690D01*
X141969904Y-79065880D02*
X141969904Y-78065880D01*
X141588952Y-78065880D01*
X141493714Y-78113500D01*
X141446095Y-78161119D01*
X141398476Y-78256357D01*
X141398476Y-78399214D01*
X141446095Y-78494452D01*
X141493714Y-78542071D01*
X141588952Y-78589690D01*
X141969904Y-78589690D01*
X141112761Y-78065880D02*
X140541333Y-78065880D01*
X140827047Y-79065880D02*
X140827047Y-78065880D01*
X139636571Y-79065880D02*
X139969904Y-78589690D01*
X140208000Y-79065880D02*
X140208000Y-78065880D01*
X139827047Y-78065880D01*
X139731809Y-78113500D01*
X139684190Y-78161119D01*
X139636571Y-78256357D01*
X139636571Y-78399214D01*
X139684190Y-78494452D01*
X139731809Y-78542071D01*
X139827047Y-78589690D01*
X140208000Y-78589690D01*
X139208000Y-79065880D02*
X139208000Y-78065880D01*
X138731809Y-79065880D02*
X138731809Y-78065880D01*
X138493714Y-78065880D01*
X138350857Y-78113500D01*
X138255619Y-78208738D01*
X138208000Y-78303976D01*
X138160380Y-78494452D01*
X138160380Y-78637309D01*
X138208000Y-78827785D01*
X138255619Y-78923023D01*
X138350857Y-79018261D01*
X138493714Y-79065880D01*
X138731809Y-79065880D01*
X137208000Y-78113500D02*
X137303238Y-78065880D01*
X137446095Y-78065880D01*
X137588952Y-78113500D01*
X137684190Y-78208738D01*
X137731809Y-78303976D01*
X137779428Y-78494452D01*
X137779428Y-78637309D01*
X137731809Y-78827785D01*
X137684190Y-78923023D01*
X137588952Y-79018261D01*
X137446095Y-79065880D01*
X137350857Y-79065880D01*
X137208000Y-79018261D01*
X137160380Y-78970642D01*
X137160380Y-78637309D01*
X137350857Y-78637309D01*
X136731809Y-78542071D02*
X136398476Y-78542071D01*
X136255619Y-79065880D02*
X136731809Y-79065880D01*
X136731809Y-78065880D01*
X136255619Y-78065880D01*
X134779428Y-79446833D02*
X134827047Y-79399214D01*
X134922285Y-79256357D01*
X134969904Y-79161119D01*
X135017523Y-79018261D01*
X135065142Y-78780166D01*
X135065142Y-78589690D01*
X135017523Y-78351595D01*
X134969904Y-78208738D01*
X134922285Y-78113500D01*
X134827047Y-77970642D01*
X134779428Y-77923023D01*
X134398476Y-79065880D02*
X134398476Y-78065880D01*
X134065142Y-78780166D01*
X133731809Y-78065880D01*
X133731809Y-79065880D01*
X133255619Y-79065880D02*
X133255619Y-78065880D01*
X132779428Y-79065880D02*
X132779428Y-78065880D01*
X132208000Y-79065880D01*
X132208000Y-78065880D01*
X131731809Y-79065880D02*
X131731809Y-78065880D01*
X131350857Y-79446833D02*
X131303238Y-79399214D01*
X131208000Y-79256357D01*
X131160380Y-79161119D01*
X131112761Y-79018261D01*
X131065142Y-78780166D01*
X131065142Y-78589690D01*
X131112761Y-78351595D01*
X131160380Y-78208738D01*
X131208000Y-78113500D01*
X131303238Y-77970642D01*
X131350857Y-77923023D01*
X147136571Y-81096833D02*
X147184190Y-81049214D01*
X147279428Y-80906357D01*
X147327047Y-80811119D01*
X147374666Y-80668261D01*
X147422285Y-80430166D01*
X147422285Y-80239690D01*
X147374666Y-80001595D01*
X147327047Y-79858738D01*
X147279428Y-79763500D01*
X147184190Y-79620642D01*
X147136571Y-79573023D01*
X146755619Y-80715880D02*
X146755619Y-79715880D01*
X146184190Y-80715880D01*
X146184190Y-79715880D01*
X145517523Y-79715880D02*
X145327047Y-79715880D01*
X145231809Y-79763500D01*
X145136571Y-79858738D01*
X145088952Y-80049214D01*
X145088952Y-80382547D01*
X145136571Y-80573023D01*
X145231809Y-80668261D01*
X145327047Y-80715880D01*
X145517523Y-80715880D01*
X145612761Y-80668261D01*
X145708000Y-80573023D01*
X145755619Y-80382547D01*
X145755619Y-80049214D01*
X145708000Y-79858738D01*
X145612761Y-79763500D01*
X145517523Y-79715880D01*
X143565142Y-80192071D02*
X143422285Y-80239690D01*
X143374666Y-80287309D01*
X143327047Y-80382547D01*
X143327047Y-80525404D01*
X143374666Y-80620642D01*
X143422285Y-80668261D01*
X143517523Y-80715880D01*
X143898476Y-80715880D01*
X143898476Y-79715880D01*
X143565142Y-79715880D01*
X143469904Y-79763500D01*
X143422285Y-79811119D01*
X143374666Y-79906357D01*
X143374666Y-80001595D01*
X143422285Y-80096833D01*
X143469904Y-80144452D01*
X143565142Y-80192071D01*
X143898476Y-80192071D01*
X142422285Y-80715880D02*
X142898476Y-80715880D01*
X142898476Y-79715880D01*
X141898476Y-79715880D02*
X141708000Y-79715880D01*
X141612761Y-79763500D01*
X141517523Y-79858738D01*
X141469904Y-80049214D01*
X141469904Y-80382547D01*
X141517523Y-80573023D01*
X141612761Y-80668261D01*
X141708000Y-80715880D01*
X141898476Y-80715880D01*
X141993714Y-80668261D01*
X142088952Y-80573023D01*
X142136571Y-80382547D01*
X142136571Y-80049214D01*
X142088952Y-79858738D01*
X141993714Y-79763500D01*
X141898476Y-79715880D01*
X141136571Y-79715880D02*
X140898476Y-80715880D01*
X140708000Y-80001595D01*
X140517523Y-80715880D01*
X140279428Y-79715880D01*
X139898476Y-80715880D02*
X139898476Y-79715880D01*
X139422285Y-80715880D02*
X139422285Y-79715880D01*
X138850857Y-80715880D01*
X138850857Y-79715880D01*
X137850857Y-79763500D02*
X137946095Y-79715880D01*
X138088952Y-79715880D01*
X138231809Y-79763500D01*
X138327047Y-79858738D01*
X138374666Y-79953976D01*
X138422285Y-80144452D01*
X138422285Y-80287309D01*
X138374666Y-80477785D01*
X138327047Y-80573023D01*
X138231809Y-80668261D01*
X138088952Y-80715880D01*
X137993714Y-80715880D01*
X137850857Y-80668261D01*
X137803238Y-80620642D01*
X137803238Y-80287309D01*
X137993714Y-80287309D01*
X136612761Y-80715880D02*
X136612761Y-79715880D01*
X136136571Y-80715880D02*
X136136571Y-79715880D01*
X135565142Y-80715880D01*
X135565142Y-79715880D01*
X135231809Y-79715880D02*
X134660380Y-79715880D01*
X134946095Y-80715880D02*
X134946095Y-79715880D01*
X134136571Y-79715880D02*
X133946095Y-79715880D01*
X133850857Y-79763500D01*
X133755619Y-79858738D01*
X133708000Y-80049214D01*
X133708000Y-80382547D01*
X133755619Y-80573023D01*
X133850857Y-80668261D01*
X133946095Y-80715880D01*
X134136571Y-80715880D01*
X134231809Y-80668261D01*
X134327047Y-80573023D01*
X134374666Y-80382547D01*
X134374666Y-80049214D01*
X134327047Y-79858738D01*
X134231809Y-79763500D01*
X134136571Y-79715880D01*
X147088952Y-82270642D02*
X147136571Y-82318261D01*
X147279428Y-82365880D01*
X147374666Y-82365880D01*
X147517523Y-82318261D01*
X147612761Y-82223023D01*
X147660380Y-82127785D01*
X147708000Y-81937309D01*
X147708000Y-81794452D01*
X147660380Y-81603976D01*
X147612761Y-81508738D01*
X147517523Y-81413500D01*
X147374666Y-81365880D01*
X147279428Y-81365880D01*
X147136571Y-81413500D01*
X147088952Y-81461119D01*
X146469904Y-81365880D02*
X146279428Y-81365880D01*
X146184190Y-81413500D01*
X146088952Y-81508738D01*
X146041333Y-81699214D01*
X146041333Y-82032547D01*
X146088952Y-82223023D01*
X146184190Y-82318261D01*
X146279428Y-82365880D01*
X146469904Y-82365880D01*
X146565142Y-82318261D01*
X146660380Y-82223023D01*
X146708000Y-82032547D01*
X146708000Y-81699214D01*
X146660380Y-81508738D01*
X146565142Y-81413500D01*
X146469904Y-81365880D01*
X145612761Y-82365880D02*
X145612761Y-81365880D01*
X145041333Y-82365880D01*
X145041333Y-81365880D01*
X144708000Y-81365880D02*
X144136571Y-81365880D01*
X144422285Y-82365880D02*
X144422285Y-81365880D01*
X143850857Y-82080166D02*
X143374666Y-82080166D01*
X143946095Y-82365880D02*
X143612761Y-81365880D01*
X143279428Y-82365880D01*
X142374666Y-82270642D02*
X142422285Y-82318261D01*
X142565142Y-82365880D01*
X142660380Y-82365880D01*
X142803238Y-82318261D01*
X142898476Y-82223023D01*
X142946095Y-82127785D01*
X142993714Y-81937309D01*
X142993714Y-81794452D01*
X142946095Y-81603976D01*
X142898476Y-81508738D01*
X142803238Y-81413500D01*
X142660380Y-81365880D01*
X142565142Y-81365880D01*
X142422285Y-81413500D01*
X142374666Y-81461119D01*
X142088952Y-81365880D02*
X141517523Y-81365880D01*
X141803238Y-82365880D02*
X141803238Y-81365880D01*
X141231809Y-82318261D02*
X141088952Y-82365880D01*
X140850857Y-82365880D01*
X140755619Y-82318261D01*
X140708000Y-82270642D01*
X140660380Y-82175404D01*
X140660380Y-82080166D01*
X140708000Y-81984928D01*
X140755619Y-81937309D01*
X140850857Y-81889690D01*
X141041333Y-81842071D01*
X141136571Y-81794452D01*
X141184190Y-81746833D01*
X141231809Y-81651595D01*
X141231809Y-81556357D01*
X141184190Y-81461119D01*
X141136571Y-81413500D01*
X141041333Y-81365880D01*
X140803238Y-81365880D01*
X140660380Y-81413500D01*
X139469904Y-82365880D02*
X139469904Y-81365880D01*
X139088952Y-81365880D01*
X138993714Y-81413500D01*
X138946095Y-81461119D01*
X138898476Y-81556357D01*
X138898476Y-81699214D01*
X138946095Y-81794452D01*
X138993714Y-81842071D01*
X139088952Y-81889690D01*
X139469904Y-81889690D01*
X137993714Y-82365880D02*
X138469904Y-82365880D01*
X138469904Y-81365880D01*
X137755619Y-81365880D02*
X137088952Y-81365880D01*
X137755619Y-82365880D01*
X137088952Y-82365880D01*
X136708000Y-82365880D02*
X136708000Y-81365880D01*
X136136571Y-82365880D02*
X136565142Y-81794452D01*
X136136571Y-81365880D02*
X136708000Y-81937309D01*
X135850857Y-81365880D02*
X135279428Y-81365880D01*
X135565142Y-82365880D02*
X135565142Y-81365880D01*
X134946095Y-82365880D02*
X134946095Y-81365880D01*
X134946095Y-81842071D02*
X134374666Y-81842071D01*
X134374666Y-82365880D02*
X134374666Y-81365880D01*
X133993714Y-81365880D02*
X133327047Y-82365880D01*
X133327047Y-81365880D02*
X133993714Y-82365880D01*
X133041333Y-82746833D02*
X132993714Y-82699214D01*
X132898476Y-82556357D01*
X132850857Y-82461119D01*
X132803238Y-82318261D01*
X132755619Y-82080166D01*
X132755619Y-81889690D01*
X132803238Y-81651595D01*
X132850857Y-81508738D01*
X132898476Y-81413500D01*
X132993714Y-81270642D01*
X133041333Y-81223023D01*
D10*
X159004000Y-63881000D02*
X159004000Y-68897500D01*
D12*
X161073500Y-82817500D02*
X161573500Y-82817500D01*
X161073500Y-82317500D02*
X162073500Y-82317500D01*
X161073500Y-81817500D02*
X162073500Y-81817500D01*
X161073500Y-81317500D02*
X162073500Y-81317500D01*
X161073500Y-80817500D02*
X162073500Y-80817500D01*
X161073500Y-80317500D02*
X162073500Y-80317500D01*
X161073500Y-79817500D02*
X162073500Y-79817500D01*
X161073500Y-79317500D02*
X162073500Y-79317500D01*
X161073500Y-78817500D02*
X162073500Y-78817500D01*
X161073500Y-78317500D02*
X162073500Y-78317500D01*
X161073500Y-77817500D02*
X162073500Y-77817500D01*
X161073500Y-77317500D02*
X161573500Y-77317500D01*
X160100000Y-76800000D02*
X160100000Y-82817500D01*
X159573500Y-76817500D02*
X159573500Y-82817500D01*
X158573500Y-79817500D02*
X158573500Y-81817500D01*
X158073500Y-81817500D02*
X158073500Y-79817500D01*
X157573500Y-79817500D02*
X157573500Y-81817500D01*
X157073500Y-81817500D02*
X157073500Y-79817500D01*
X156573500Y-79817500D02*
X156573500Y-81817500D01*
X156073500Y-81817500D02*
X156073500Y-79817500D01*
X155573500Y-79817500D02*
X155573500Y-81817500D01*
X155073500Y-81817500D02*
X155073500Y-79817500D01*
X154573500Y-79817500D02*
X154573500Y-81817500D01*
X158573500Y-78817500D02*
X158573500Y-76567500D01*
X158073500Y-76317500D02*
X158073500Y-78817500D01*
X157573500Y-78817500D02*
X157573500Y-76317500D01*
X157073500Y-76317500D02*
X157073500Y-78817500D01*
X156573500Y-78817500D02*
X156573500Y-76317500D01*
X156073500Y-76567500D02*
X156073500Y-78817500D01*
X155573500Y-78817500D02*
X155573500Y-76567500D01*
X155073500Y-78817500D02*
X155073500Y-76817500D01*
X154573500Y-76817500D02*
X154573500Y-78817500D01*
X153073500Y-76817500D02*
X153073500Y-82317500D01*
X153573500Y-76817500D02*
X153573500Y-82317500D01*
D10*
X160573500Y-77817500D02*
X160573500Y-80817500D01*
X159073500Y-79317500D02*
X159073500Y-81817500D01*
X159073500Y-79317500D02*
X159073500Y-76817500D01*
X154323500Y-79317500D02*
X159073500Y-79317500D01*
X154073500Y-76817500D02*
X154073500Y-81817500D01*
D11*
X111102380Y-77400000D02*
X110102380Y-77400000D01*
X110578571Y-77400000D02*
X110578571Y-77971428D01*
X111102380Y-77971428D02*
X110102380Y-77971428D01*
X111102380Y-78447619D02*
X110102380Y-78447619D01*
X110102380Y-78685714D01*
X110150000Y-78828571D01*
X110245238Y-78923809D01*
X110340476Y-78971428D01*
X110530952Y-79019047D01*
X110673809Y-79019047D01*
X110864285Y-78971428D01*
X110959523Y-78923809D01*
X111054761Y-78828571D01*
X111102380Y-78685714D01*
X111102380Y-78447619D01*
X111102380Y-80019047D02*
X110626190Y-79685714D01*
X111102380Y-79447619D02*
X110102380Y-79447619D01*
X110102380Y-79828571D01*
X110150000Y-79923809D01*
X110197619Y-79971428D01*
X110292857Y-80019047D01*
X110435714Y-80019047D01*
X110530952Y-79971428D01*
X110578571Y-79923809D01*
X110626190Y-79828571D01*
X110626190Y-79447619D01*
X111102380Y-80971428D02*
X111102380Y-80400000D01*
X111102380Y-80685714D02*
X110102380Y-80685714D01*
X110245238Y-80590476D01*
X110340476Y-80495238D01*
X110388095Y-80400000D01*
X111007142Y-81400000D02*
X111054761Y-81447619D01*
X111102380Y-81400000D01*
X111054761Y-81352380D01*
X111007142Y-81400000D01*
X111102380Y-81400000D01*
X110483333Y-81400000D02*
X110530952Y-81447619D01*
X110578571Y-81400000D01*
X110530952Y-81352380D01*
X110483333Y-81400000D01*
X110578571Y-81400000D01*
X111752380Y-76257142D02*
X111752380Y-76876190D01*
X112133333Y-76542857D01*
X112133333Y-76685714D01*
X112180952Y-76780952D01*
X112228571Y-76828571D01*
X112323809Y-76876190D01*
X112561904Y-76876190D01*
X112657142Y-76828571D01*
X112704761Y-76780952D01*
X112752380Y-76685714D01*
X112752380Y-76400000D01*
X112704761Y-76304761D01*
X112657142Y-76257142D01*
X111752380Y-77161904D02*
X112752380Y-77495238D01*
X111752380Y-77828571D01*
X111752380Y-78066666D02*
X111752380Y-78685714D01*
X112133333Y-78352380D01*
X112133333Y-78495238D01*
X112180952Y-78590476D01*
X112228571Y-78638095D01*
X112323809Y-78685714D01*
X112561904Y-78685714D01*
X112657142Y-78638095D01*
X112704761Y-78590476D01*
X112752380Y-78495238D01*
X112752380Y-78209523D01*
X112704761Y-78114285D01*
X112657142Y-78066666D01*
X111800000Y-80400000D02*
X111752380Y-80304761D01*
X111752380Y-80161904D01*
X111800000Y-80019047D01*
X111895238Y-79923809D01*
X111990476Y-79876190D01*
X112180952Y-79828571D01*
X112323809Y-79828571D01*
X112514285Y-79876190D01*
X112609523Y-79923809D01*
X112704761Y-80019047D01*
X112752380Y-80161904D01*
X112752380Y-80257142D01*
X112704761Y-80400000D01*
X112657142Y-80447619D01*
X112323809Y-80447619D01*
X112323809Y-80257142D01*
X112752380Y-80876190D02*
X111752380Y-80876190D01*
X112752380Y-81447619D01*
X111752380Y-81447619D01*
X112752380Y-81923809D02*
X111752380Y-81923809D01*
X111752380Y-82161904D01*
X111800000Y-82304761D01*
X111895238Y-82400000D01*
X111990476Y-82447619D01*
X112180952Y-82495238D01*
X112323809Y-82495238D01*
X112514285Y-82447619D01*
X112609523Y-82400000D01*
X112704761Y-82304761D01*
X112752380Y-82161904D01*
X112752380Y-81923809D01*
X113402380Y-76257142D02*
X113402380Y-76876190D01*
X113783333Y-76542857D01*
X113783333Y-76685714D01*
X113830952Y-76780952D01*
X113878571Y-76828571D01*
X113973809Y-76876190D01*
X114211904Y-76876190D01*
X114307142Y-76828571D01*
X114354761Y-76780952D01*
X114402380Y-76685714D01*
X114402380Y-76400000D01*
X114354761Y-76304761D01*
X114307142Y-76257142D01*
X113402380Y-77161904D02*
X114402380Y-77495238D01*
X113402380Y-77828571D01*
X113402380Y-78066666D02*
X113402380Y-78685714D01*
X113783333Y-78352380D01*
X113783333Y-78495238D01*
X113830952Y-78590476D01*
X113878571Y-78638095D01*
X113973809Y-78685714D01*
X114211904Y-78685714D01*
X114307142Y-78638095D01*
X114354761Y-78590476D01*
X114402380Y-78495238D01*
X114402380Y-78209523D01*
X114354761Y-78114285D01*
X114307142Y-78066666D01*
X113450000Y-80400000D02*
X113402380Y-80304761D01*
X113402380Y-80161904D01*
X113450000Y-80019047D01*
X113545238Y-79923809D01*
X113640476Y-79876190D01*
X113830952Y-79828571D01*
X113973809Y-79828571D01*
X114164285Y-79876190D01*
X114259523Y-79923809D01*
X114354761Y-80019047D01*
X114402380Y-80161904D01*
X114402380Y-80257142D01*
X114354761Y-80400000D01*
X114307142Y-80447619D01*
X113973809Y-80447619D01*
X113973809Y-80257142D01*
X114402380Y-80876190D02*
X113402380Y-80876190D01*
X114402380Y-81447619D01*
X113402380Y-81447619D01*
X114402380Y-81923809D02*
X113402380Y-81923809D01*
X113402380Y-82161904D01*
X113450000Y-82304761D01*
X113545238Y-82400000D01*
X113640476Y-82447619D01*
X113830952Y-82495238D01*
X113973809Y-82495238D01*
X114164285Y-82447619D01*
X114259523Y-82400000D01*
X114354761Y-82304761D01*
X114402380Y-82161904D01*
X114402380Y-81923809D01*
X115052380Y-76257142D02*
X115052380Y-76876190D01*
X115433333Y-76542857D01*
X115433333Y-76685714D01*
X115480952Y-76780952D01*
X115528571Y-76828571D01*
X115623809Y-76876190D01*
X115861904Y-76876190D01*
X115957142Y-76828571D01*
X116004761Y-76780952D01*
X116052380Y-76685714D01*
X116052380Y-76400000D01*
X116004761Y-76304761D01*
X115957142Y-76257142D01*
X115052380Y-77161904D02*
X116052380Y-77495238D01*
X115052380Y-77828571D01*
X115052380Y-78066666D02*
X115052380Y-78685714D01*
X115433333Y-78352380D01*
X115433333Y-78495238D01*
X115480952Y-78590476D01*
X115528571Y-78638095D01*
X115623809Y-78685714D01*
X115861904Y-78685714D01*
X115957142Y-78638095D01*
X116004761Y-78590476D01*
X116052380Y-78495238D01*
X116052380Y-78209523D01*
X116004761Y-78114285D01*
X115957142Y-78066666D01*
X115100000Y-80400000D02*
X115052380Y-80304761D01*
X115052380Y-80161904D01*
X115100000Y-80019047D01*
X115195238Y-79923809D01*
X115290476Y-79876190D01*
X115480952Y-79828571D01*
X115623809Y-79828571D01*
X115814285Y-79876190D01*
X115909523Y-79923809D01*
X116004761Y-80019047D01*
X116052380Y-80161904D01*
X116052380Y-80257142D01*
X116004761Y-80400000D01*
X115957142Y-80447619D01*
X115623809Y-80447619D01*
X115623809Y-80257142D01*
X116052380Y-80876190D02*
X115052380Y-80876190D01*
X116052380Y-81447619D01*
X115052380Y-81447619D01*
X116052380Y-81923809D02*
X115052380Y-81923809D01*
X115052380Y-82161904D01*
X115100000Y-82304761D01*
X115195238Y-82400000D01*
X115290476Y-82447619D01*
X115480952Y-82495238D01*
X115623809Y-82495238D01*
X115814285Y-82447619D01*
X115909523Y-82400000D01*
X116004761Y-82304761D01*
X116052380Y-82161904D01*
X116052380Y-81923809D01*
X116702380Y-76257142D02*
X116702380Y-76876190D01*
X117083333Y-76542857D01*
X117083333Y-76685714D01*
X117130952Y-76780952D01*
X117178571Y-76828571D01*
X117273809Y-76876190D01*
X117511904Y-76876190D01*
X117607142Y-76828571D01*
X117654761Y-76780952D01*
X117702380Y-76685714D01*
X117702380Y-76400000D01*
X117654761Y-76304761D01*
X117607142Y-76257142D01*
X116702380Y-77161904D02*
X117702380Y-77495238D01*
X116702380Y-77828571D01*
X116702380Y-78066666D02*
X116702380Y-78685714D01*
X117083333Y-78352380D01*
X117083333Y-78495238D01*
X117130952Y-78590476D01*
X117178571Y-78638095D01*
X117273809Y-78685714D01*
X117511904Y-78685714D01*
X117607142Y-78638095D01*
X117654761Y-78590476D01*
X117702380Y-78495238D01*
X117702380Y-78209523D01*
X117654761Y-78114285D01*
X117607142Y-78066666D01*
X116750000Y-80400000D02*
X116702380Y-80304761D01*
X116702380Y-80161904D01*
X116750000Y-80019047D01*
X116845238Y-79923809D01*
X116940476Y-79876190D01*
X117130952Y-79828571D01*
X117273809Y-79828571D01*
X117464285Y-79876190D01*
X117559523Y-79923809D01*
X117654761Y-80019047D01*
X117702380Y-80161904D01*
X117702380Y-80257142D01*
X117654761Y-80400000D01*
X117607142Y-80447619D01*
X117273809Y-80447619D01*
X117273809Y-80257142D01*
X117702380Y-80876190D02*
X116702380Y-80876190D01*
X117702380Y-81447619D01*
X116702380Y-81447619D01*
X117702380Y-81923809D02*
X116702380Y-81923809D01*
X116702380Y-82161904D01*
X116750000Y-82304761D01*
X116845238Y-82400000D01*
X116940476Y-82447619D01*
X117130952Y-82495238D01*
X117273809Y-82495238D01*
X117464285Y-82447619D01*
X117559523Y-82400000D01*
X117654761Y-82304761D01*
X117702380Y-82161904D01*
X117702380Y-81923809D01*
X119352380Y-76780952D02*
X118352380Y-76780952D01*
X118352380Y-77447619D02*
X118352380Y-77638095D01*
X118400000Y-77733333D01*
X118495238Y-77828571D01*
X118685714Y-77876190D01*
X119019047Y-77876190D01*
X119209523Y-77828571D01*
X119304761Y-77733333D01*
X119352380Y-77638095D01*
X119352380Y-77447619D01*
X119304761Y-77352380D01*
X119209523Y-77257142D01*
X119019047Y-77209523D01*
X118685714Y-77209523D01*
X118495238Y-77257142D01*
X118400000Y-77352380D01*
X118352380Y-77447619D01*
X119352380Y-78828571D02*
X119352380Y-78257142D01*
X119352380Y-78542857D02*
X118352380Y-78542857D01*
X118495238Y-78447619D01*
X118590476Y-78352380D01*
X118638095Y-78257142D01*
X119352380Y-80019047D02*
X118352380Y-80019047D01*
X118352380Y-80685714D02*
X118352380Y-80876190D01*
X118400000Y-80971428D01*
X118495238Y-81066666D01*
X118685714Y-81114285D01*
X119019047Y-81114285D01*
X119209523Y-81066666D01*
X119304761Y-80971428D01*
X119352380Y-80876190D01*
X119352380Y-80685714D01*
X119304761Y-80590476D01*
X119209523Y-80495238D01*
X119019047Y-80447619D01*
X118685714Y-80447619D01*
X118495238Y-80495238D01*
X118400000Y-80590476D01*
X118352380Y-80685714D01*
X118447619Y-81495238D02*
X118400000Y-81542857D01*
X118352380Y-81638095D01*
X118352380Y-81876190D01*
X118400000Y-81971428D01*
X118447619Y-82019047D01*
X118542857Y-82066666D01*
X118638095Y-82066666D01*
X118780952Y-82019047D01*
X119352380Y-81447619D01*
X119352380Y-82066666D01*
X121002380Y-76780952D02*
X120002380Y-76780952D01*
X120002380Y-77447619D02*
X120002380Y-77638095D01*
X120050000Y-77733333D01*
X120145238Y-77828571D01*
X120335714Y-77876190D01*
X120669047Y-77876190D01*
X120859523Y-77828571D01*
X120954761Y-77733333D01*
X121002380Y-77638095D01*
X121002380Y-77447619D01*
X120954761Y-77352380D01*
X120859523Y-77257142D01*
X120669047Y-77209523D01*
X120335714Y-77209523D01*
X120145238Y-77257142D01*
X120050000Y-77352380D01*
X120002380Y-77447619D01*
X120002380Y-78209523D02*
X120002380Y-78828571D01*
X120383333Y-78495238D01*
X120383333Y-78638095D01*
X120430952Y-78733333D01*
X120478571Y-78780952D01*
X120573809Y-78828571D01*
X120811904Y-78828571D01*
X120907142Y-78780952D01*
X120954761Y-78733333D01*
X121002380Y-78638095D01*
X121002380Y-78352380D01*
X120954761Y-78257142D01*
X120907142Y-78209523D01*
X121002380Y-80019047D02*
X120002380Y-80019047D01*
X120002380Y-80685714D02*
X120002380Y-80876190D01*
X120050000Y-80971428D01*
X120145238Y-81066666D01*
X120335714Y-81114285D01*
X120669047Y-81114285D01*
X120859523Y-81066666D01*
X120954761Y-80971428D01*
X121002380Y-80876190D01*
X121002380Y-80685714D01*
X120954761Y-80590476D01*
X120859523Y-80495238D01*
X120669047Y-80447619D01*
X120335714Y-80447619D01*
X120145238Y-80495238D01*
X120050000Y-80590476D01*
X120002380Y-80685714D01*
X120335714Y-81971428D02*
X121002380Y-81971428D01*
X119954761Y-81733333D02*
X120669047Y-81495238D01*
X120669047Y-82114285D01*
X122652380Y-76780952D02*
X121652380Y-76780952D01*
X121652380Y-77447619D02*
X121652380Y-77638095D01*
X121700000Y-77733333D01*
X121795238Y-77828571D01*
X121985714Y-77876190D01*
X122319047Y-77876190D01*
X122509523Y-77828571D01*
X122604761Y-77733333D01*
X122652380Y-77638095D01*
X122652380Y-77447619D01*
X122604761Y-77352380D01*
X122509523Y-77257142D01*
X122319047Y-77209523D01*
X121985714Y-77209523D01*
X121795238Y-77257142D01*
X121700000Y-77352380D01*
X121652380Y-77447619D01*
X121652380Y-78780952D02*
X121652380Y-78304761D01*
X122128571Y-78257142D01*
X122080952Y-78304761D01*
X122033333Y-78400000D01*
X122033333Y-78638095D01*
X122080952Y-78733333D01*
X122128571Y-78780952D01*
X122223809Y-78828571D01*
X122461904Y-78828571D01*
X122557142Y-78780952D01*
X122604761Y-78733333D01*
X122652380Y-78638095D01*
X122652380Y-78400000D01*
X122604761Y-78304761D01*
X122557142Y-78257142D01*
X122652380Y-80019047D02*
X121652380Y-80019047D01*
X121652380Y-80685714D02*
X121652380Y-80876190D01*
X121700000Y-80971428D01*
X121795238Y-81066666D01*
X121985714Y-81114285D01*
X122319047Y-81114285D01*
X122509523Y-81066666D01*
X122604761Y-80971428D01*
X122652380Y-80876190D01*
X122652380Y-80685714D01*
X122604761Y-80590476D01*
X122509523Y-80495238D01*
X122319047Y-80447619D01*
X121985714Y-80447619D01*
X121795238Y-80495238D01*
X121700000Y-80590476D01*
X121652380Y-80685714D01*
X121652380Y-81971428D02*
X121652380Y-81780952D01*
X121700000Y-81685714D01*
X121747619Y-81638095D01*
X121890476Y-81542857D01*
X122080952Y-81495238D01*
X122461904Y-81495238D01*
X122557142Y-81542857D01*
X122604761Y-81590476D01*
X122652380Y-81685714D01*
X122652380Y-81876190D01*
X122604761Y-81971428D01*
X122557142Y-82019047D01*
X122461904Y-82066666D01*
X122223809Y-82066666D01*
X122128571Y-82019047D01*
X122080952Y-81971428D01*
X122033333Y-81876190D01*
X122033333Y-81685714D01*
X122080952Y-81590476D01*
X122128571Y-81542857D01*
X122223809Y-81495238D01*
X124207142Y-78685714D02*
X124254761Y-78733333D01*
X124302380Y-78685714D01*
X124254761Y-78638095D01*
X124207142Y-78685714D01*
X124302380Y-78685714D01*
X124207142Y-79161904D02*
X124254761Y-79209523D01*
X124302380Y-79161904D01*
X124254761Y-79114285D01*
X124207142Y-79161904D01*
X124302380Y-79161904D01*
X124207142Y-79638095D02*
X124254761Y-79685714D01*
X124302380Y-79638095D01*
X124254761Y-79590476D01*
X124207142Y-79638095D01*
X124302380Y-79638095D01*
X124207142Y-80114285D02*
X124254761Y-80161904D01*
X124302380Y-80114285D01*
X124254761Y-80066666D01*
X124207142Y-80114285D01*
X124302380Y-80114285D01*
X125952380Y-75828571D02*
X124952380Y-75828571D01*
X124952380Y-76495238D02*
X124952380Y-76685714D01*
X125000000Y-76780952D01*
X125095238Y-76876190D01*
X125285714Y-76923809D01*
X125619047Y-76923809D01*
X125809523Y-76876190D01*
X125904761Y-76780952D01*
X125952380Y-76685714D01*
X125952380Y-76495238D01*
X125904761Y-76400000D01*
X125809523Y-76304761D01*
X125619047Y-76257142D01*
X125285714Y-76257142D01*
X125095238Y-76304761D01*
X125000000Y-76400000D01*
X124952380Y-76495238D01*
X125047619Y-77304761D02*
X125000000Y-77352380D01*
X124952380Y-77447619D01*
X124952380Y-77685714D01*
X125000000Y-77780952D01*
X125047619Y-77828571D01*
X125142857Y-77876190D01*
X125238095Y-77876190D01*
X125380952Y-77828571D01*
X125952380Y-77257142D01*
X125952380Y-77876190D01*
X125952380Y-78352380D02*
X125952380Y-78542857D01*
X125904761Y-78638095D01*
X125857142Y-78685714D01*
X125714285Y-78780952D01*
X125523809Y-78828571D01*
X125142857Y-78828571D01*
X125047619Y-78780952D01*
X125000000Y-78733333D01*
X124952380Y-78638095D01*
X124952380Y-78447619D01*
X125000000Y-78352380D01*
X125047619Y-78304761D01*
X125142857Y-78257142D01*
X125380952Y-78257142D01*
X125476190Y-78304761D01*
X125523809Y-78352380D01*
X125571428Y-78447619D01*
X125571428Y-78638095D01*
X125523809Y-78733333D01*
X125476190Y-78780952D01*
X125380952Y-78828571D01*
X125952380Y-80019047D02*
X124952380Y-80019047D01*
X124952380Y-80685714D02*
X124952380Y-80876190D01*
X125000000Y-80971428D01*
X125095238Y-81066666D01*
X125285714Y-81114285D01*
X125619047Y-81114285D01*
X125809523Y-81066666D01*
X125904761Y-80971428D01*
X125952380Y-80876190D01*
X125952380Y-80685714D01*
X125904761Y-80590476D01*
X125809523Y-80495238D01*
X125619047Y-80447619D01*
X125285714Y-80447619D01*
X125095238Y-80495238D01*
X125000000Y-80590476D01*
X124952380Y-80685714D01*
X124952380Y-81447619D02*
X124952380Y-82066666D01*
X125333333Y-81733333D01*
X125333333Y-81876190D01*
X125380952Y-81971428D01*
X125428571Y-82019047D01*
X125523809Y-82066666D01*
X125761904Y-82066666D01*
X125857142Y-82019047D01*
X125904761Y-81971428D01*
X125952380Y-81876190D01*
X125952380Y-81590476D01*
X125904761Y-81495238D01*
X125857142Y-81447619D01*
X124952380Y-82685714D02*
X124952380Y-82780952D01*
X125000000Y-82876190D01*
X125047619Y-82923809D01*
X125142857Y-82971428D01*
X125333333Y-83019047D01*
X125571428Y-83019047D01*
X125761904Y-82971428D01*
X125857142Y-82923809D01*
X125904761Y-82876190D01*
X125952380Y-82780952D01*
X125952380Y-82685714D01*
X125904761Y-82590476D01*
X125857142Y-82542857D01*
X125761904Y-82495238D01*
X125571428Y-82447619D01*
X125333333Y-82447619D01*
X125142857Y-82495238D01*
X125047619Y-82542857D01*
X125000000Y-82590476D01*
X124952380Y-82685714D01*
X126602380Y-77090476D02*
X126602380Y-76614285D01*
X127078571Y-76566666D01*
X127030952Y-76614285D01*
X126983333Y-76709523D01*
X126983333Y-76947619D01*
X127030952Y-77042857D01*
X127078571Y-77090476D01*
X127173809Y-77138095D01*
X127411904Y-77138095D01*
X127507142Y-77090476D01*
X127554761Y-77042857D01*
X127602380Y-76947619D01*
X127602380Y-76709523D01*
X127554761Y-76614285D01*
X127507142Y-76566666D01*
X126602380Y-77423809D02*
X127602380Y-77757142D01*
X126602380Y-78090476D01*
X126602380Y-79042857D02*
X127602380Y-79376190D01*
X126602380Y-79709523D01*
X127078571Y-80376190D02*
X127126190Y-80519047D01*
X127173809Y-80566666D01*
X127269047Y-80614285D01*
X127411904Y-80614285D01*
X127507142Y-80566666D01*
X127554761Y-80519047D01*
X127602380Y-80423809D01*
X127602380Y-80042857D01*
X126602380Y-80042857D01*
X126602380Y-80376190D01*
X126650000Y-80471428D01*
X126697619Y-80519047D01*
X126792857Y-80566666D01*
X126888095Y-80566666D01*
X126983333Y-80519047D01*
X127030952Y-80471428D01*
X127078571Y-80376190D01*
X127078571Y-80042857D01*
X127316666Y-80995238D02*
X127316666Y-81471428D01*
X127602380Y-80900000D02*
X126602380Y-81233333D01*
X127602380Y-81566666D01*
X126602380Y-81757142D02*
X126602380Y-82328571D01*
X127602380Y-82042857D02*
X126602380Y-82042857D01*
X104291380Y-68675404D02*
X104291380Y-69294452D01*
X104672333Y-68961119D01*
X104672333Y-69103976D01*
X104719952Y-69199214D01*
X104767571Y-69246833D01*
X104862809Y-69294452D01*
X105100904Y-69294452D01*
X105196142Y-69246833D01*
X105243761Y-69199214D01*
X105291380Y-69103976D01*
X105291380Y-68818261D01*
X105243761Y-68723023D01*
X105196142Y-68675404D01*
X104291380Y-69580166D02*
X105291380Y-69913500D01*
X104291380Y-70246833D01*
X104291380Y-70484928D02*
X104291380Y-71103976D01*
X104672333Y-70770642D01*
X104672333Y-70913500D01*
X104719952Y-71008738D01*
X104767571Y-71056357D01*
X104862809Y-71103976D01*
X105100904Y-71103976D01*
X105196142Y-71056357D01*
X105243761Y-71008738D01*
X105291380Y-70913500D01*
X105291380Y-70627785D01*
X105243761Y-70532547D01*
X105196142Y-70484928D01*
X105989000Y-69151595D02*
X105941380Y-69056357D01*
X105941380Y-68913500D01*
X105989000Y-68770642D01*
X106084238Y-68675404D01*
X106179476Y-68627785D01*
X106369952Y-68580166D01*
X106512809Y-68580166D01*
X106703285Y-68627785D01*
X106798523Y-68675404D01*
X106893761Y-68770642D01*
X106941380Y-68913500D01*
X106941380Y-69008738D01*
X106893761Y-69151595D01*
X106846142Y-69199214D01*
X106512809Y-69199214D01*
X106512809Y-69008738D01*
X106941380Y-69627785D02*
X105941380Y-69627785D01*
X106941380Y-70199214D01*
X105941380Y-70199214D01*
X106941380Y-70675404D02*
X105941380Y-70675404D01*
X105941380Y-70913500D01*
X105989000Y-71056357D01*
X106084238Y-71151595D01*
X106179476Y-71199214D01*
X106369952Y-71246833D01*
X106512809Y-71246833D01*
X106703285Y-71199214D01*
X106798523Y-71151595D01*
X106893761Y-71056357D01*
X106941380Y-70913500D01*
X106941380Y-70675404D01*
D10*
X120904000Y-63754000D02*
X110670000Y-63770000D01*
X120904000Y-68834000D02*
X120904000Y-63754000D01*
X110680500Y-68834000D02*
X120777000Y-68834000D01*
X108150000Y-63380000D02*
X108150000Y-43100000D01*
X164030000Y-43100000D02*
X164030000Y-63380000D01*
X108150000Y-53225000D02*
X164030000Y-53225000D01*
D13*
X161590000Y-63770000D02*
X161590000Y-68970000D01*
X113270000Y-63770000D02*
X161590000Y-63770000D01*
X110670000Y-68970000D02*
X161590000Y-68970000D01*
X113270000Y-63770000D02*
X113270000Y-66370000D01*
X113270000Y-66370000D02*
X110670000Y-66370000D01*
X110670000Y-66370000D02*
X110670000Y-68970000D01*
X112000000Y-63770000D02*
X110670000Y-63770000D01*
X110670000Y-63770000D02*
X110670000Y-65100000D01*
D11*
X110122380Y-64608095D02*
X109122380Y-64608095D01*
X109598571Y-64608095D02*
X109598571Y-65179523D01*
X110122380Y-65179523D02*
X109122380Y-65179523D01*
X110122380Y-65655714D02*
X109122380Y-65655714D01*
X109122380Y-65893809D01*
X109170000Y-66036666D01*
X109265238Y-66131904D01*
X109360476Y-66179523D01*
X109550952Y-66227142D01*
X109693809Y-66227142D01*
X109884285Y-66179523D01*
X109979523Y-66131904D01*
X110074761Y-66036666D01*
X110122380Y-65893809D01*
X110122380Y-65655714D01*
X110122380Y-67227142D02*
X109646190Y-66893809D01*
X110122380Y-66655714D02*
X109122380Y-66655714D01*
X109122380Y-67036666D01*
X109170000Y-67131904D01*
X109217619Y-67179523D01*
X109312857Y-67227142D01*
X109455714Y-67227142D01*
X109550952Y-67179523D01*
X109598571Y-67131904D01*
X109646190Y-67036666D01*
X109646190Y-66655714D01*
X110122380Y-68179523D02*
X110122380Y-67608095D01*
X110122380Y-67893809D02*
X109122380Y-67893809D01*
X109265238Y-67798571D01*
X109360476Y-67703333D01*
X109408095Y-67608095D01*
M02*
