M48
INCH,TZ
T1C0.0157
T2C0.0360
T3C0.0394
%
G90
G05
T1
X40984Y-30059
X41340Y-31310
X41890Y-30394
X42362Y-30630
X42913Y-30787
X43484Y-32402
T2
X66029Y-22453
X65129Y-18453
X64129Y-19453
X45029Y-21453
X64129Y-21453
X62129Y-19453
X63029Y-21453
X60129Y-19453
X58129Y-19453
X44129Y-19453
X58129Y-21453
X47029Y-23453
X56129Y-21453
X57029Y-21453
X47129Y-18453
X55029Y-21453
X53129Y-18453
X51129Y-18453
X51029Y-23453
X50129Y-21453
X48129Y-19453
X49129Y-18453
X48129Y-21453
X42029Y-17453
X65029Y-29453
X49029Y-21453
X41129Y-22453
X43029Y-21453
X42129Y-21453
X62129Y-21453
X50129Y-19453
X62029Y-17453
X66029Y-20453
X66129Y-19453
X62129Y-23453
X61029Y-21453
X60129Y-21453
X52129Y-19453
X59029Y-21453
X52129Y-21453
X58129Y-23453
X41029Y-25453
X59029Y-19453
X56129Y-23453
X54129Y-21453
X54129Y-23453
X66129Y-27453
X41029Y-19453
X50129Y-23453
X46029Y-17453
X65029Y-21453
X46129Y-19453
X45129Y-24453
X64129Y-23453
X65029Y-19453
X57029Y-19453
X53129Y-22453
X60129Y-23453
X53029Y-21453
X51029Y-21453
X66129Y-29453
X61029Y-19453
X52129Y-23453
X41029Y-23453
X42129Y-23453
X43029Y-19453
X63029Y-19453
X44029Y-22453
X63129Y-17453
X43129Y-17453
X66029Y-26453
X66129Y-21453
X47029Y-21453
X46129Y-21453
X47129Y-17453
X48029Y-17453
X63129Y-22453
X50029Y-17453
X57129Y-22453
X65129Y-22453
X51129Y-22453
X48129Y-23453
X55029Y-19453
X63129Y-24453
X62029Y-18453
X66129Y-23453
X61129Y-22453
X53029Y-19453
X51129Y-17453
X43129Y-24453
X59129Y-24453
X64029Y-17453
X43129Y-22453
X51029Y-19453
X53129Y-24453
X49129Y-22453
X49029Y-19453
X60029Y-18453
X55129Y-22453
X59129Y-22453
X45129Y-20453
X42129Y-25453
X61129Y-24453
X66029Y-18453
X46129Y-23453
X44029Y-18453
X41029Y-21453
X65129Y-24453
X47129Y-22453
X47029Y-19453
X52029Y-17453
X53129Y-17453
X54029Y-17453
X55129Y-17453
X66029Y-28453
X54029Y-18453
X64029Y-22453
X55129Y-24453
X54029Y-22453
X65129Y-26453
X52029Y-22453
X64029Y-20453
X56029Y-18453
X64029Y-18453
X47129Y-24453
X41129Y-18453
X60029Y-22453
X57129Y-24453
X41129Y-20453
X45029Y-23453
X45029Y-19453
X52029Y-18453
X49129Y-24453
X42029Y-18453
X42029Y-22453
X58029Y-18453
X58029Y-22453
X51129Y-24453
X41129Y-17453
X44129Y-21453
X46029Y-22453
X46029Y-18453
X62029Y-22453
X56029Y-22453
X50029Y-18453
X48029Y-18453
X56029Y-20453
X62029Y-24453
X56029Y-24453
X54029Y-24453
X48029Y-20453
X45129Y-22453
X44029Y-24453
X60029Y-20453
X42029Y-20453
X58029Y-24453
X58029Y-20453
X48029Y-22453
X60029Y-24453
X50029Y-22453
X66029Y-30453
X62029Y-20453
X54029Y-20453
X52029Y-20453
X59129Y-17453
X60029Y-17453
X65129Y-17453
X65129Y-28453
X64029Y-24453
X63129Y-20453
X58029Y-17453
X57129Y-17453
X61129Y-20453
X55129Y-20453
X46029Y-24453
X56029Y-17453
X42029Y-24453
X65029Y-25453
X46029Y-20453
X41129Y-24453
X65029Y-23453
X57129Y-20453
X57029Y-23453
X43129Y-20453
X50029Y-20453
X42029Y-26453
X65129Y-20453
X63129Y-18453
X59129Y-20453
X48029Y-24453
X66029Y-24453
X49129Y-17453
X57129Y-18453
X52029Y-24453
X50029Y-24453
X61029Y-23453
X59129Y-18453
X51129Y-20453
X49129Y-20453
X44029Y-20453
X45129Y-17453
X43029Y-23453
X59029Y-23453
X53129Y-20453
X53029Y-23453
X45129Y-18453
X65129Y-30453
X63029Y-23453
X61129Y-18453
X55029Y-23453
X43129Y-18453
X47129Y-20453
X56129Y-19453
X66029Y-17453
X44129Y-23453
X41129Y-26453
X66129Y-25453
X55129Y-18453
X54129Y-19453
X61129Y-17453
X49029Y-23453
X65029Y-27453
X44029Y-17453
X42129Y-19453
T3
X44094Y-25630
X44094Y-26630
X45094Y-25630
X45094Y-26630
X46094Y-25630
X46094Y-26630
X47094Y-25630
X47094Y-26630
X48094Y-25630
X48094Y-26630
X49094Y-25630
X49094Y-26630
X50094Y-25630
X50094Y-26630
X51094Y-25630
X51094Y-26630
X52094Y-25630
X52094Y-26630
X53094Y-25630
X53094Y-26630
X54094Y-25630
X54094Y-26630
X55094Y-25630
X55094Y-26630
X56094Y-25630
X56094Y-26630
X57094Y-25630
X57094Y-26630
X58094Y-25630
X58094Y-26630
X59094Y-25630
X59094Y-26630
X60094Y-25630
X60094Y-26630
X61094Y-25630
X61094Y-26630
X62094Y-25630
X62094Y-26630
X63094Y-25630
X63094Y-26630
X44094Y-28055
X44094Y-29055
X45094Y-28055
X45094Y-29055
X46094Y-28055
X46094Y-29055
X47094Y-28055
X47094Y-29055
X48094Y-28055
X48094Y-29055
X49094Y-28055
X49094Y-29055
X50094Y-28055
X50094Y-29055
X51094Y-28055
X51094Y-29055
X52094Y-28055
X52094Y-29055
X53094Y-28055
X53094Y-29055
X54094Y-28055
X54094Y-29055
X55094Y-28055
X55094Y-29055
X56094Y-28055
X56094Y-29055
X57094Y-28055
X57094Y-29055
X58094Y-28055
X58094Y-29055
X59094Y-28055
X59094Y-29055
X60094Y-28055
X60094Y-29055
X61094Y-28055
X61094Y-29055
X62094Y-28055
X62094Y-29055
X63094Y-28055
X63094Y-29055
T0
M30
