M48
INCH,TZ
T1C0.0157
T2C0.0360
T3C0.0394
T4C0.0315
%
G90
G05
T1
X40984Y-30059
X41340Y-31310
X41890Y-30394
X42362Y-30630
X42913Y-30787
X43484Y-32402
T2
X41129Y-20453
X70100Y-30450
X69100Y-23450
X66029Y-28453
X61029Y-13453
X61029Y-21453
X59129Y-12453
X57029Y-17453
X56029Y-20453
X54129Y-13453
X63129Y-22453
X63129Y-14453
X41129Y-24453
X69100Y-17450
X68000Y-19450
X59129Y-14453
X56129Y-23453
X57129Y-24453
X54129Y-21453
X55029Y-19453
X66129Y-19453
X41029Y-21453
X68100Y-16450
X69100Y-19450
X59129Y-18453
X57129Y-16453
X41029Y-19453
X41029Y-15453
X41129Y-22453
X42129Y-21453
X66029Y-24453
X71100Y-25450
X66129Y-23453
X54129Y-17453
X66129Y-17453
X52029Y-18453
X52029Y-14453
X66029Y-20453
X68000Y-23450
X56129Y-17453
X68000Y-25450
X69100Y-15450
X69000Y-24450
X68100Y-18450
X59029Y-11453
X59029Y-21453
X56129Y-19453
X57129Y-12453
X55129Y-24453
X63129Y-18453
X41029Y-17453
X54029Y-16453
X55029Y-23453
X54029Y-18453
X66029Y-12453
X43129Y-12453
X50029Y-24453
X65029Y-27453
X54129Y-19453
X53029Y-19453
X57129Y-14453
X52029Y-16453
X53029Y-23453
X43029Y-23453
X42029Y-16453
X48029Y-10453
X68000Y-29450
X42129Y-15453
X68000Y-13450
X66129Y-15453
X45029Y-11453
X42029Y-18453
X42029Y-14453
X57129Y-20453
X57029Y-15453
X52129Y-21453
X57129Y-22453
X50129Y-13453
X69000Y-20450
X41129Y-26453
X59029Y-13453
X56029Y-22453
X52129Y-23453
X52129Y-15453
X55129Y-14453
X52129Y-13453
X57129Y-18453
X54029Y-22453
X55129Y-20453
X54129Y-15453
X55029Y-17453
X54029Y-20453
X54129Y-23453
X52029Y-20453
X51029Y-23453
X48129Y-13453
X45129Y-14453
X43029Y-19453
X69100Y-27450
X57029Y-11453
X45129Y-24453
X66129Y-13453
X44129Y-23453
X55129Y-12453
X55129Y-16453
X50029Y-14453
X42029Y-20453
X55029Y-15453
X45129Y-22453
X43029Y-17453
X42129Y-17453
X54029Y-12453
X42129Y-19453
X43129Y-24453
X44129Y-19453
X44029Y-12453
X59129Y-10453
X55129Y-10453
X71000Y-26450
X51029Y-19453
X55129Y-22453
X53029Y-17453
X52129Y-11453
X52129Y-17453
X50029Y-18453
X68100Y-20450
X68000Y-15450
X57029Y-21453
X52029Y-12453
X50029Y-20453
X42029Y-22453
X66129Y-25453
X50129Y-11453
X45129Y-20453
X64029Y-10453
X43129Y-16453
X48029Y-24453
X51129Y-10453
X71000Y-14450
X69000Y-18450
X55129Y-18453
X52029Y-10453
X57029Y-13453
X55029Y-11453
X53129Y-24453
X50129Y-21453
X44129Y-21453
X43129Y-20453
X42129Y-23453
X56029Y-10453
X70000Y-17450
X69100Y-13450
X55029Y-13453
X53129Y-12453
X53129Y-16453
X53129Y-20453
X50029Y-16453
X52029Y-22453
X50129Y-15453
X45129Y-16453
X68000Y-21450
X57129Y-10453
X70000Y-27450
X50029Y-10453
X68100Y-28450
X55029Y-21453
X70100Y-14450
X53029Y-15453
X52129Y-19453
X53129Y-14453
X71000Y-22450
X41029Y-25453
X43129Y-14453
X49029Y-19453
X53129Y-18453
X43129Y-22453
X66029Y-26453
X65129Y-26453
X43029Y-21453
X53129Y-22453
X66029Y-30453
X66029Y-14453
X48029Y-18453
X44129Y-17453
X70100Y-12450
X71100Y-17450
X50129Y-23453
X71100Y-23450
X62029Y-18453
X52029Y-9453
X61129Y-10453
X60029Y-24453
X69100Y-29450
X70100Y-24450
X58029Y-9453
X50029Y-12453
X51129Y-16453
X51029Y-17453
X50129Y-17453
X48029Y-20453
X45129Y-18453
X64029Y-24453
X43029Y-15453
X48129Y-21453
X46029Y-24453
X60129Y-13453
X61129Y-9453
X57129Y-9453
X47029Y-19453
X42129Y-25453
X63029Y-23453
X49029Y-23453
X64129Y-13453
X44129Y-13453
X53129Y-9453
X51129Y-20453
X53029Y-11453
X69000Y-28450
X63129Y-16453
X70000Y-19450
X48029Y-14453
X46029Y-18453
X51129Y-14453
X51129Y-24453
X49129Y-24453
X53029Y-13453
X43129Y-18453
X43029Y-13453
X47029Y-23453
X70100Y-26450
X48129Y-17453
X71100Y-21450
X46129Y-13453
X60029Y-10453
X56029Y-9453
X63129Y-9453
X71000Y-24450
X66129Y-27453
X53029Y-21453
X50129Y-19453
X48129Y-11453
X54029Y-9453
X51129Y-9453
X68100Y-30450
X42029Y-26453
X62129Y-11453
X51029Y-11453
X48129Y-15453
X48029Y-16453
X46129Y-11453
X66129Y-21453
X65029Y-19453
X64029Y-14453
X62029Y-24453
X59129Y-9453
X65129Y-30453
X62029Y-16453
X60029Y-14453
X51129Y-18453
X48129Y-19453
X46029Y-16453
X45029Y-19453
X65029Y-17453
X50029Y-9453
X62029Y-14453
X60029Y-9453
X71000Y-16450
X63029Y-19453
X70100Y-18450
X62129Y-21453
X63129Y-10453
X62029Y-20453
X62029Y-9453
X68100Y-22450
X64129Y-11453
X64129Y-21453
X64029Y-18453
X70000Y-23450
X62129Y-15453
X62129Y-23453
X64029Y-16453
X51029Y-15453
X50029Y-22453
X51129Y-22453
X51129Y-12453
X65029Y-23453
X66029Y-16453
X69100Y-25450
X48129Y-23453
X66029Y-22453
X61029Y-19453
X60029Y-18453
X49129Y-20453
X49029Y-17453
X46129Y-21453
X46029Y-20453
X49129Y-10453
X65129Y-28453
X45029Y-21453
X46129Y-15453
X44029Y-18453
X49129Y-9453
X58029Y-24453
X45029Y-17453
X55129Y-9453
X70000Y-13450
X71100Y-15450
X69000Y-30450
X62129Y-17453
X63029Y-17453
X64129Y-19453
X62129Y-19453
X62029Y-12453
X61029Y-17453
X60029Y-20453
X48029Y-22453
X46029Y-12453
X45029Y-13453
X44029Y-22453
X63129Y-12453
X65029Y-25453
X70000Y-29450
X70000Y-21450
X70100Y-20450
X47129Y-12453
X49029Y-15453
X56029Y-24453
X51029Y-13453
X51029Y-21453
X49129Y-22453
X49129Y-16453
X48029Y-12453
X60129Y-21453
X61129Y-24453
X60029Y-16453
X60129Y-15453
X65129Y-20453
X64129Y-23453
X71100Y-19450
X61029Y-23453
X60129Y-11453
X65129Y-24453
X46129Y-19453
X60129Y-23453
X46029Y-22453
X46129Y-17453
X47029Y-17453
X44029Y-16453
X44029Y-20453
X64129Y-17453
X63129Y-24453
X71000Y-20450
X63129Y-20453
X46029Y-14453
X44129Y-15453
X64129Y-15453
X64029Y-22453
X64029Y-20453
X62129Y-13453
X62029Y-22453
X71100Y-27450
X71100Y-13450
X61129Y-20453
X49029Y-11453
X49129Y-12453
X46129Y-23453
X47129Y-24453
X44029Y-14453
X45029Y-15453
X44129Y-11453
X64029Y-12453
X70000Y-25450
X70100Y-16450
X70000Y-15450
X58029Y-14453
X56129Y-13453
X49129Y-18453
X49029Y-21453
X59029Y-19453
X69000Y-12450
X59129Y-24453
X58129Y-21453
X47029Y-21453
X58029Y-12453
X58129Y-11453
X49129Y-14453
X53129Y-10453
X47129Y-20453
X68100Y-12450
X59029Y-17453
X58029Y-20453
X47129Y-16453
X60129Y-17453
X65129Y-12453
X60129Y-19453
X47129Y-22453
X47029Y-11453
X65129Y-14453
X57029Y-19453
X47029Y-15453
X60029Y-22453
X58029Y-16453
X58129Y-13453
X54029Y-24453
X65129Y-16453
X62029Y-10453
X70100Y-28450
X71000Y-18450
X60029Y-12453
X59029Y-23453
X58029Y-18453
X49029Y-13453
X47129Y-14453
X65029Y-11453
X69000Y-26450
X61129Y-12453
X58129Y-23453
X58129Y-17453
X56029Y-18453
X47129Y-18453
X66029Y-18453
X65029Y-13453
X42029Y-24453
X58029Y-10453
X70100Y-22450
X69100Y-21450
X65029Y-15453
X61129Y-16453
X47029Y-13453
X45129Y-12453
X61129Y-14453
X63029Y-15453
X41129Y-14453
X54029Y-10453
X59029Y-15453
X59129Y-16453
X65029Y-21453
X59129Y-20453
X56129Y-15453
X57029Y-23453
X58129Y-15453
X56029Y-14453
X45029Y-23453
X71100Y-29450
X68100Y-14450
X68000Y-17450
X56129Y-11453
X65029Y-29453
X61129Y-22453
X54029Y-14453
X44029Y-24453
X65129Y-22453
X71000Y-28450
X69000Y-14450
X68000Y-27450
X61029Y-11453
X61029Y-15453
X58129Y-19453
X56129Y-21453
X41029Y-23453
X69000Y-22450
X68100Y-26450
X68100Y-24450
X66129Y-29453
X61129Y-18453
X58029Y-22453
X63029Y-13453
X56029Y-16453
X63029Y-21453
X59129Y-22453
X65129Y-18453
X63029Y-11453
X52029Y-24453
X41129Y-18453
X41129Y-16453
X42129Y-13453
X69000Y-16450
X56029Y-12453
X54129Y-11453
T3
X44094Y-28055
X44094Y-29055
X45094Y-28055
X45094Y-29055
X46094Y-28055
X46094Y-29055
X47094Y-28055
X47094Y-29055
X48094Y-28055
X48094Y-29055
X49094Y-28055
X49094Y-29055
X50094Y-28055
X50094Y-29055
X51094Y-28055
X51094Y-29055
X52094Y-28055
X52094Y-29055
X53094Y-28055
X53094Y-29055
X54094Y-28055
X54094Y-29055
X55094Y-28055
X55094Y-29055
X56094Y-28055
X56094Y-29055
X57094Y-28055
X57094Y-29055
X58094Y-28055
X58094Y-29055
X59094Y-28055
X59094Y-29055
X62094Y-26630
X60094Y-29055
X62094Y-25630
X61094Y-26630
X63094Y-25630
X63094Y-26630
X61094Y-25630
X55094Y-25630
X54094Y-26630
X54094Y-25630
X53094Y-26630
X60094Y-26630
X60094Y-25630
X59094Y-26630
X53094Y-25630
X59094Y-25630
X52094Y-26630
X52094Y-25630
X58094Y-26630
X58094Y-25630
X55094Y-26630
X51094Y-26630
X51094Y-25630
X56094Y-25630
X60094Y-28055
X56094Y-26630
X50094Y-26630
X50094Y-25630
X57094Y-25630
X44094Y-25630
X44094Y-26630
X57094Y-26630
X45094Y-25630
X45094Y-26630
X46094Y-25630
X46094Y-26630
X47094Y-25630
X47094Y-26630
X48094Y-25630
X48094Y-26630
X49094Y-25630
X49094Y-26630
X61094Y-28055
X61094Y-29055
X62094Y-28055
X62094Y-29055
X63094Y-28055
X63094Y-29055
T4
X66890Y-27953
X66890Y-28543
X66890Y-29134
X66890Y-29724
X66890Y-30315
X66890Y-12717
X66890Y-13307
X66890Y-13898
X66890Y-14488
X66890Y-15079
T0
M30
